<svg width="18" height="20" viewBox="0 0 18 20" fill="none" xmlns="http://www.w3.org/2000/svg">
<path fill-rule="evenodd" clip-rule="evenodd" d="M8.74474 0.520752C13.564 0.520752 17.4687 4.38931 17.4687 9.1467C17.4687 11.6021 16.4285 13.8208 14.7593 15.393L17.2385 17.8492C17.6196 18.2267 17.6141 18.8335 17.2262 19.2044C16.8383 19.5753 16.215 19.5699 15.8339 19.1924L13.1876 16.5706C11.8864 17.3341 10.3674 17.7727 8.74474 17.7727C3.92553 17.7727 0.020752 13.9041 0.020752 9.1467C0.020752 4.38931 3.92553 0.520752 8.74474 0.520752ZM8.74474 2.43737C5.02091 2.43737 1.98986 5.44031 1.98986 9.1467C1.98986 12.8531 5.02091 15.856 8.74474 15.856C12.4686 15.856 15.4996 12.8531 15.4996 9.1467C15.4996 5.44031 12.4686 2.43737 8.74474 2.43737Z" fill="white"/>
</svg>
