<svg width="100" height="100" viewBox="0 0 100 100" fill="none" xmlns="http://www.w3.org/2000/svg">
<g clip-path="url(#clip0_2102_24575)">
<path d="M0 0H100V100.098H0V0Z" fill="white"/>
<path d="M34.7723 55.116L44.5358 61.3545C44.5083 61.5281 44.4665 61.6809 44.4089 61.8469L34.5828 55.5295C34.5986 55.3987 34.7098 55.2355 34.7723 55.116Z" fill="black"/>
<path d="M65.109 55.1226L65.3444 55.562L55.6137 61.8715L55.448 61.2939C56.3414 60.894 57.2141 60.2299 58.034 59.6954L63.0127 56.4681C63.7058 56.0244 64.3862 55.5124 65.109 55.1226Z" fill="black"/>
<g filter="url(#filter0_d_2102_24575)">
<path d="M31.8493 50.8655L31.8979 51.2662C32.0278 51.3216 32.2347 51.2772 32.3689 51.2413C33.095 51.2192 33.7074 51.4421 34.2372 51.9461C34.7591 52.4428 35.0673 53.1521 35.0826 53.8708C35.0921 54.314 34.9731 54.7221 34.7722 55.1161C34.7097 55.2357 34.5985 55.3988 34.5826 55.5296C34.3559 55.9856 33.749 56.3561 33.2901 56.525C32.6483 56.7612 31.901 56.677 31.2883 56.3952C30.5394 56.0507 30.0927 55.4981 29.8289 54.721C29.6232 54.1144 29.6919 53.3532 29.9806 52.786C30.3084 52.1417 30.9132 51.5851 31.6096 51.3657C31.7104 51.3339 31.7758 51.3217 31.8538 51.2464L31.8493 50.8655Z" fill="#A046FC"/>
</g>
<path d="M67.4169 51.2161C67.5819 51.2159 67.7502 51.2307 67.9069 51.1721L67.9569 51.1934C68.1491 51.2662 68.3603 51.2865 68.5561 51.3523C69.2541 51.5868 69.7833 52.0459 70.1025 52.7091C70.4046 53.3363 70.4979 54.2035 70.2716 54.8725C70.0246 55.6027 69.5175 56.1737 68.8194 56.5028C68.1374 56.8243 67.3162 56.8034 66.6183 56.5455C66.1138 56.359 65.6699 55.9845 65.3445 55.5619L65.1092 55.1226C65.0074 54.9526 64.9649 54.7311 64.9297 54.5371C64.7876 53.7535 64.9744 52.9111 65.4348 52.2642C65.9116 51.5942 66.638 51.3444 67.4169 51.2161Z" fill="#3E10B7"/>
<path d="M50.2096 57.8116L50.2094 57.8116C49.0904 57.7976 48.1003 58.0532 47.1639 58.6389C46.7225 58.915 46.2487 59.3372 45.8534 59.8268C45.4603 60.3138 45.1693 60.8372 45.0498 61.3155L45.029 61.4362C44.9968 61.6383 44.9483 61.815 44.8865 61.9953C44.5571 63.1905 44.8511 64.5811 45.4827 65.7033L45.4827 65.7033C46.1431 66.8769 47.3108 67.7949 48.6077 68.1599C49.9736 68.5442 51.4187 68.3444 52.6545 67.6325L52.6545 67.6325C53.8146 66.9643 54.7877 65.7869 55.1284 64.5094C55.3429 63.7048 55.3745 62.7788 55.1367 62.0212L55.133 62.0094L55.1331 62.0093L54.9674 61.4317L54.9618 61.4123L54.9579 61.3926C54.7441 60.3316 53.8447 59.2516 52.8824 58.6219L50.2096 57.8116ZM50.2096 57.8116L50.2331 57.8119M50.2096 57.8116L50.2331 57.8119M50.2331 57.8119C50.5753 57.816 50.8562 57.8194 51.1102 57.8819L50.2331 57.8119ZM51.1102 57.8819C51.7603 58.0418 52.3413 58.268 52.8824 58.6219L51.1102 57.8819Z" fill="#00E6A6" stroke="black"/>
<path d="M31.8494 50.8653L31.2426 41.3573C30.7322 41.3074 30.2466 41.2193 29.7608 41.05C28.4669 40.5991 27.364 39.6165 26.7823 38.3739C26.2153 37.163 26.1317 35.7276 26.5912 34.4688C27.068 33.1626 28.0668 32.1113 29.3325 31.5423C30.522 31.0075 31.9379 30.966 33.1556 31.4332C34.4892 31.9447 35.5226 32.918 36.0894 34.2318C36.6638 35.5635 36.6242 37.131 36.0035 38.4425C35.8398 38.7886 35.5514 39.0984 35.4163 39.4443L41.5019 44.902C42.0021 44.3782 42.6158 43.7712 43.2628 43.4291C43.6533 43.0952 44.1694 42.8464 44.6289 42.6179C46.6445 41.616 48.7926 41.1906 51.0352 41.3653C53.7165 41.5742 56.5013 42.8325 58.3501 44.797L64.6742 39.4683C64.1103 38.8059 63.7881 38.0949 63.5913 37.2506C63.309 36.0393 63.6307 34.495 64.3034 33.4581C65.0697 32.2767 66.2848 31.487 67.6558 31.2094C68.9382 30.9497 70.3328 31.234 71.412 31.9687C72.5617 32.7515 73.3895 33.9079 73.6362 35.2883C73.8792 36.6483 73.5885 38.0282 72.7961 39.1618C71.9669 40.3482 70.7688 41.0701 69.3496 41.3076C69.2292 41.3278 69.1152 41.3354 69.0037 41.3869L68.3032 47.7286L68.0529 49.8077C67.9958 50.2577 67.9108 50.7185 67.9069 51.1721C67.7501 51.2306 67.5819 51.2159 67.4168 51.2161L68.5666 41.362C67.1065 41.2656 66.1023 40.8099 65.0231 39.8232L58.1039 45.6332C57.3244 44.7693 56.4271 44.0716 55.4017 43.523C52.8912 42.1798 49.9781 41.7921 47.2201 42.5206C46.7718 42.639 46.3206 42.7669 45.8882 42.9353C45.6243 43.0382 45.3618 43.1887 45.0912 43.2666L45.0261 43.2847C44.5828 43.5373 44.1244 43.7641 43.6972 44.0439C42.9692 44.5207 42.3047 45.076 41.6563 45.6549L35.0775 39.7548C34.4563 40.3416 33.7924 40.8322 32.9673 41.0905C32.5473 41.2218 32.1386 41.2703 31.7079 41.3417L32.369 51.2412C32.2348 51.2771 32.0279 51.3214 31.898 51.266L31.8494 50.8653Z" fill="black"/>
<path d="M32.369 51.2413L31.708 41.3418C32.1387 41.2704 32.5474 41.2219 32.9674 41.0906C33.7925 40.8323 34.4563 40.3417 35.0775 39.7549L41.6563 45.655C42.3048 45.0761 42.9692 44.5208 43.6973 44.044C44.1245 43.7642 44.5829 43.5374 45.0262 43.2848L45.0913 43.2667C45.3618 43.1888 45.6244 43.0383 45.8883 42.9354C46.3207 42.767 46.7719 42.6391 47.2202 42.5207C49.9781 41.7922 52.8913 42.1799 55.4018 43.5231C56.4271 44.0717 57.3245 44.7694 58.104 45.6333L65.0231 39.8233C66.1023 40.81 67.1065 41.2657 68.5667 41.3621L67.4169 51.2162C66.638 51.3444 65.9116 51.5943 65.4349 52.2643C64.9744 52.9112 64.7876 53.7536 64.9297 54.5372C64.9649 54.7311 65.0074 54.9526 65.1092 55.1226C64.3863 55.5125 63.706 56.0245 63.0129 56.4682L58.0342 59.6955C57.2143 60.23 56.3415 60.8941 55.4481 61.294C55.1996 60.0606 54.1896 58.8798 53.1562 58.2037C52.5569 57.8116 51.9203 57.5664 51.2298 57.3965C50.9026 57.3161 50.5516 57.3159 50.2158 57.3118C49.0088 57.2967 47.923 57.5746 46.8989 58.2151C45.9121 58.8324 44.8402 60.0592 44.5603 61.2132L44.5358 61.3546L34.7724 55.1161C34.9732 54.722 35.0923 54.3139 35.0828 53.8707C35.0675 53.152 34.7593 52.4428 34.2374 51.9461C33.7076 51.4421 33.0952 51.2192 32.369 51.2413Z" fill="white"/>
<path d="M49.7482 48.8954C50.0988 48.8689 50.5119 48.9025 50.8545 48.9795C51.7073 49.1712 52.3242 49.684 52.791 50.4016L52.1893 51.0052L51.9827 50.7765C51.3944 50.144 50.7876 49.9276 49.9295 49.8945C48.9615 49.9203 48.2855 50.418 47.5719 51.0069C47.3329 50.8092 47.0877 50.6053 46.885 50.3701C47.6789 49.511 48.5749 49.0066 49.7482 48.8954Z" fill="#19104A"/>
<path d="M49.6938 45.0852C50.2086 45.0538 50.7764 45.0988 51.2843 45.1864C53.1286 45.5045 54.9947 46.4749 56.0985 48.0297C55.8767 48.1871 55.6865 48.3882 55.491 48.5769C55.3287 48.3477 55.1132 48.1494 54.9145 47.9514C53.7925 46.8333 52.3504 46.2113 50.7896 46.04L50.3377 46.0083C48.7009 45.944 47.0133 46.4968 45.6941 47.4693C45.3345 47.7345 45.0092 48.0637 44.682 48.3679L44.0337 47.7161L44.0841 47.6572C45.3382 46.2063 47.4042 45.2422 49.305 45.1089L49.6938 45.0852Z" fill="#19104A"/>
</g>
<defs>
<filter id="filter0_d_2102_24575" x="25.7102" y="50.8655" width="13.373" height="13.7971" filterUnits="userSpaceOnUse" color-interpolation-filters="sRGB">
<feFlood flood-opacity="0" result="BackgroundImageFix"/>
<feColorMatrix in="SourceAlpha" type="matrix" values="0 0 0 0 0 0 0 0 0 0 0 0 0 0 0 0 0 0 127 0" result="hardAlpha"/>
<feOffset dy="4"/>
<feGaussianBlur stdDeviation="2"/>
<feComposite in2="hardAlpha" operator="out"/>
<feColorMatrix type="matrix" values="0 0 0 0 0 0 0 0 0 0 0 0 0 0 0 0 0 0 0.25 0"/>
<feBlend mode="normal" in2="BackgroundImageFix" result="effect1_dropShadow_2102_24575"/>
<feBlend mode="normal" in="SourceGraphic" in2="effect1_dropShadow_2102_24575" result="shape"/>
</filter>
<clipPath id="clip0_2102_24575">
<rect width="100" height="100" fill="white"/>
</clipPath>
</defs>
</svg>
