<svg width="50" height="50" viewBox="0 0 50 50" fill="none" xmlns="http://www.w3.org/2000/svg">
<g clip-path="url(#clip0_2114_24607)">
<path d="M0 0H50V50.0489H0V0Z" fill="white"/>
<path d="M17.386 27.5581L22.2678 30.6774C22.2541 30.7642 22.2331 30.8406 22.2043 30.9236L17.2913 27.7649C17.2992 27.6995 17.3548 27.6179 17.386 27.5581Z" fill="black"/>
<path d="M32.5546 27.5613L32.6723 27.781L27.807 30.9358L27.7241 30.647C28.1708 30.447 28.6072 30.1149 29.0171 29.8477L31.5065 28.2341C31.853 28.0122 32.1932 27.7562 32.5546 27.5613Z" fill="black"/>
<g filter="url(#filter0_d_2114_24607)">
<path d="M15.9248 25.4326L15.9491 25.633C16.014 25.6607 16.1175 25.6385 16.1846 25.6205C16.5476 25.6095 16.8538 25.7209 17.1187 25.9729C17.3797 26.2213 17.5338 26.5759 17.5414 26.9353C17.5462 27.1569 17.4867 27.3609 17.3862 27.5579C17.355 27.6177 17.2994 27.6993 17.2914 27.7647C17.1781 27.9927 16.8746 28.1779 16.6452 28.2624C16.3243 28.3805 15.9506 28.3384 15.6443 28.1975C15.2698 28.0252 15.0465 27.7489 14.9146 27.3604C14.8117 27.0571 14.8461 26.6765 14.9904 26.3929C15.1543 26.0707 15.4567 25.7924 15.8049 25.6827C15.8553 25.6668 15.888 25.6607 15.927 25.6231L15.9248 25.4326Z" fill="#A046FC"/>
</g>
<path d="M33.7083 25.6082C33.7908 25.6081 33.875 25.6155 33.9533 25.5862L33.9783 25.5968C34.0744 25.6332 34.18 25.6434 34.2779 25.6763C34.6269 25.7935 34.8915 26.0231 35.0511 26.3547C35.2022 26.6683 35.2488 27.1019 35.1357 27.4364C35.0122 27.8015 34.7586 28.087 34.4096 28.2515C34.0686 28.4123 33.658 28.4018 33.309 28.2729C33.0568 28.1796 32.8348 27.9924 32.6721 27.7811L32.5545 27.5614C32.5036 27.4764 32.4823 27.3657 32.4647 27.2687C32.3937 26.8769 32.4871 26.4557 32.7173 26.1322C32.9557 25.7972 33.3189 25.6723 33.7083 25.6082Z" fill="#3E10B7"/>
<path d="M25.1017 29.1558L25.1016 29.1558C24.5861 29.1493 24.1389 29.266 23.7146 29.5314L25.1017 29.1558ZM25.1017 29.1558C25.2868 29.158 25.3991 29.16 25.4954 29.1837L25.1017 29.1558ZM27.2378 30.7654L27.2339 30.7457C27.1443 30.3014 26.7499 29.8117 26.3043 29.5202C26.063 29.3623 25.8002 29.2587 25.4954 29.1837L27.2378 30.7654ZM27.2378 30.7654L27.2434 30.7848M27.2378 30.7654L27.2434 30.7848M27.2434 30.7848L27.3263 31.0736L27.3261 31.0736M27.2434 30.7848L27.3261 31.0736M27.3261 31.0736L27.3298 31.0855M27.3261 31.0736L27.3298 31.0855M27.3298 31.0855C27.4312 31.4086 27.4209 31.8219 27.3226 32.1903L27.3298 31.0855ZM26.2024 33.5996L26.2025 33.5996C26.7318 33.2948 27.1714 32.7575 27.3226 32.1903L26.2024 33.5996ZM26.2024 33.5996C25.6405 33.9233 24.9872 34.0125 24.3716 33.8393C23.7868 33.6747 23.257 33.2582 22.9592 32.7291L22.9592 32.7291M26.2024 33.5996L22.9592 32.7291M22.9592 32.7291C22.6674 32.2105 22.5428 31.5869 22.6824 31.071C22.7155 30.9735 22.7427 30.8737 22.7611 30.7591M22.9592 32.7291L22.7611 30.7591M22.7611 30.7591L22.7696 30.7099C22.8192 30.5189 22.9416 30.293 23.1213 30.0704C23.3033 29.8449 23.5198 29.6532 23.7145 29.5314L22.7611 30.7591ZM22.5346 32.968L22.5236 32.9742L22.5346 32.968Z" fill="#00E6A6" stroke="black"/>
<path d="M15.9247 25.4327L15.6213 20.6787C15.3661 20.6537 15.1233 20.6096 14.8804 20.525C14.2335 20.2996 13.682 19.8082 13.3911 19.187C13.1076 18.5815 13.0658 17.8638 13.2956 17.2344C13.534 16.5813 14.0334 16.0556 14.6662 15.7711C15.261 15.5037 15.969 15.483 16.5778 15.7166C17.2446 15.9724 17.7613 16.459 18.0447 17.1159C18.3319 17.7817 18.3121 18.5655 18.0018 19.2212C17.9199 19.3943 17.7757 19.5492 17.7082 19.7222L20.7509 22.451C21.001 22.1891 21.3079 21.8856 21.6314 21.7145C21.8266 21.5476 22.0847 21.4232 22.3145 21.309C23.3222 20.808 24.3963 20.5953 25.5176 20.6827C26.8583 20.7871 28.2507 21.4162 29.1751 22.3985L32.3371 19.7341C32.0551 19.4029 31.8941 19.0475 31.7957 18.6253C31.6545 18.0197 31.8153 17.2475 32.1517 16.729C32.5348 16.1383 33.1424 15.7435 33.8279 15.6047C34.4691 15.4748 35.1664 15.617 35.706 15.9844C36.2809 16.3758 36.6947 16.954 36.8181 17.6442C36.9396 18.3242 36.7943 19.0141 36.3981 19.5809C35.9835 20.1741 35.3844 20.5351 34.6748 20.6538C34.6146 20.6639 34.5576 20.6677 34.5019 20.6935L34.1516 23.8643L34.0264 24.9038C33.9979 25.1289 33.9554 25.3593 33.9534 25.586C33.8751 25.6153 33.7909 25.6079 33.7084 25.608L34.2833 20.681C33.5532 20.6328 33.0511 20.405 32.5115 19.9116L29.052 22.8166C28.6622 22.3847 28.2135 22.0358 27.7008 21.7615C26.4456 21.0899 24.989 20.8961 23.6101 21.2603C23.3859 21.3195 23.1603 21.3834 22.9441 21.4677C22.8122 21.5191 22.6809 21.5943 22.5456 21.6333L22.5131 21.6423C22.2914 21.7686 22.0622 21.882 21.8486 22.022C21.4846 22.2603 21.1524 22.538 20.8281 22.8274L17.5387 19.8774C17.2281 20.1708 16.8962 20.4161 16.4837 20.5452C16.2736 20.6109 16.0693 20.6352 15.854 20.6708L16.1845 25.6206C16.1174 25.6385 16.0139 25.6607 15.949 25.633L15.9247 25.4327Z" fill="black"/>
<path d="M16.1845 25.6206L15.854 20.6709C16.0693 20.6352 16.2737 20.611 16.4837 20.5453C16.8962 20.4162 17.2282 20.1708 17.5388 19.8774L20.8282 22.8275C21.1524 22.538 21.4846 22.2604 21.8486 22.022C22.0623 21.8821 22.2915 21.7687 22.5131 21.6424L22.5457 21.6334C22.6809 21.5944 22.8122 21.5191 22.9441 21.4677C23.1604 21.3835 23.3859 21.3196 23.6101 21.2603C24.9891 20.8961 26.4457 21.09 27.7009 21.7616C28.2136 22.0358 28.6623 22.3847 29.052 22.8166L32.5116 19.9117C33.0512 20.405 33.5533 20.6329 34.2834 20.6811L33.7084 25.6081C33.319 25.6722 32.9558 25.7971 32.7174 26.1321C32.4872 26.4556 32.3938 26.8768 32.4648 27.2686C32.4825 27.3656 32.5037 27.4763 32.5546 27.5613C32.1932 27.7562 31.853 28.0122 31.5064 28.2341L29.0171 29.8477C28.6071 30.115 28.1708 30.447 27.7241 30.647C27.5998 30.0303 27.0948 29.4399 26.5781 29.1018C26.2785 28.9058 25.9602 28.7832 25.6149 28.6983C25.4513 28.658 25.2758 28.6579 25.1079 28.6559C24.5044 28.6484 23.9615 28.7873 23.4495 29.1075C22.9561 29.4162 22.4201 30.0296 22.2801 30.6066L22.2679 30.6773L17.3862 27.558C17.4866 27.361 17.5461 27.157 17.5414 26.9354C17.5337 26.576 17.3796 26.2214 17.1187 25.973C16.8538 25.721 16.5476 25.6096 16.1845 25.6206Z" fill="white"/>
<path d="M24.874 24.4476C25.0493 24.4343 25.2558 24.4511 25.4271 24.4896C25.8535 24.5855 26.162 24.8419 26.3954 25.2007L26.0945 25.5025L25.9912 25.3881C25.6971 25.0719 25.3937 24.9637 24.9646 24.9472C24.4806 24.96 24.1426 25.2089 23.7858 25.5033C23.6663 25.4045 23.5437 25.3025 23.4424 25.1849C23.8393 24.7554 24.2873 24.5032 24.874 24.4476Z" fill="#19104A"/>
<path d="M24.8469 22.5426C25.1043 22.5269 25.3882 22.5494 25.6421 22.5932C26.5643 22.7523 27.4974 23.2375 28.0493 24.0148C27.9383 24.0936 27.8433 24.1941 27.7455 24.2884C27.6644 24.1739 27.5566 24.0747 27.4573 23.9757C26.8962 23.4166 26.1752 23.1056 25.3948 23.02L25.1688 23.0041C24.3504 22.972 23.5066 23.2484 22.8471 23.7347C22.6672 23.8673 22.5046 24.0318 22.341 24.1839L22.0168 23.858L22.042 23.8286C22.6691 23.1031 23.7021 22.6211 24.6525 22.5545L24.8469 22.5426Z" fill="#19104A"/>
</g>
<defs>
<filter id="filter0_d_2114_24607" x="10.8552" y="25.4326" width="10.6865" height="10.8984" filterUnits="userSpaceOnUse" color-interpolation-filters="sRGB">
<feFlood flood-opacity="0" result="BackgroundImageFix"/>
<feColorMatrix in="SourceAlpha" type="matrix" values="0 0 0 0 0 0 0 0 0 0 0 0 0 0 0 0 0 0 127 0" result="hardAlpha"/>
<feOffset dy="4"/>
<feGaussianBlur stdDeviation="2"/>
<feComposite in2="hardAlpha" operator="out"/>
<feColorMatrix type="matrix" values="0 0 0 0 0 0 0 0 0 0 0 0 0 0 0 0 0 0 0.25 0"/>
<feBlend mode="normal" in2="BackgroundImageFix" result="effect1_dropShadow_2114_24607"/>
<feBlend mode="normal" in="SourceGraphic" in2="effect1_dropShadow_2114_24607" result="shape"/>
</filter>
<clipPath id="clip0_2114_24607">
<rect width="50" height="50" fill="white"/>
</clipPath>
</defs>
</svg>
